<svg width="32" height="32" viewBox="0 0 32 32" fill="none" xmlns="http://www.w3.org/2000/svg">
<g clip-path="url(#clip0_2176_1137)">
<mask id="mask0_2176_1137" style="mask-type:luminance" maskUnits="userSpaceOnUse" x="0" y="0" width="32" height="32">
<path d="M32 0H0V32H32V0Z" fill="white"/>
</mask>
<g mask="url(#mask0_2176_1137)">
<path d="M3.23243 25.6557C1.14475 22.8883 -0.00119019 19.4886 -0.00119019 16.0127C-0.00119019 15.8298 0.00338133 15.6469 0.00947673 15.4671C3.14862 13.9966 7.9 12.1909 13.2853 11.5661C12.7855 14.2542 10.873 16.2489 8.67872 18.5393C6.80133 20.4989 4.68619 22.7024 3.23091 25.6557H3.23243ZM0.315772 12.8415C1.01674 9.34887 2.88042 6.18229 5.61879 3.84318C7.45046 3.96052 9.91606 4.39482 11.5542 5.76934C12.5935 6.63793 13.1847 7.78537 13.3615 9.26353C11.9398 9.41287 10.489 9.65061 9.04139 9.97062C6.12169 10.6152 3.18976 11.5798 0.314248 12.8431L0.315772 12.8415ZM15.0697 31.9797C11.2327 31.7572 7.62877 30.177 4.86905 27.5026C6.18415 24.3832 8.36785 22.1051 10.3001 20.089C12.7885 17.4923 15.1429 15.0328 15.5818 11.3802C16.0618 11.3573 16.5479 11.3467 17.0355 11.3467C17.5872 11.3467 18.1479 11.3619 18.7118 11.3924L18.6965 11.7428C18.5335 16.3449 18.3506 21.5108 15.0697 31.9797ZM18.7346 9.1203C18.1449 9.08984 17.5536 9.07153 16.9517 9.07153C16.5022 9.07153 16.0496 9.0822 15.5955 9.10199C15.3699 7.00516 14.4922 5.30761 12.9866 4.04738C11.8087 3.06144 10.2589 2.35895 8.36933 1.9536C10.7069 0.679658 13.3249 0.012207 15.9993 0.012207C16.3529 0.012207 16.7003 0.0274457 17.0508 0.0518274C17.767 2.62257 18.6005 6.15029 18.7346 9.11876V9.1203ZM23.7405 9.82887C22.8414 9.61862 21.9195 9.45251 20.9823 9.32907C20.8909 6.37281 20.1503 2.9563 19.4737 0.396218C22.145 0.990521 24.6091 2.25532 26.6617 4.08852C25.3116 5.21008 23.873 7.04481 23.7405 9.83041V9.82887ZM31.7225 13.0717C29.9091 11.9745 27.9783 11.0906 25.9775 10.4461C25.9226 8.50164 26.6739 6.90004 28.2145 5.68247C30.0157 7.80979 31.2165 10.3424 31.7225 13.0732V13.0717ZM29.8298 20.7549C28.4508 18.1125 27.067 15.458 26.3889 12.9711C28.3623 13.7071 30.2443 14.6976 31.9967 15.9243L31.9998 16.0127C31.9998 18.2345 31.5548 20.374 30.674 22.3885C30.3997 21.8521 30.1194 21.3066 29.8298 20.7549ZM17.4286 31.9477C20.5831 21.6738 20.772 16.4714 20.9396 11.8724L20.9488 11.6057C21.9438 11.7428 22.942 11.9409 23.9172 12.1924C24.4887 15.365 26.2442 18.7297 27.8 21.7012C28.3547 22.768 28.8972 23.8118 29.3665 24.7947C26.68 28.8756 22.2654 31.5149 17.4286 31.9461V31.9477Z" fill="#FF7922"/>
</g>
</g>
<defs>
<clipPath id="clip0_2176_1137">
<rect width="32" height="32" fill="white"/>
</clipPath>
</defs>
</svg>
