<svg width="24" height="24" viewBox="0 0 24 24" fill="none" xmlns="http://www.w3.org/2000/svg">
<path d="M0 0V2.872H3.16568L5.60463 12.4827L4.30395 13.764C3.89449 14.165 3.61567 14.6737 3.5021 15.2269C3.38854 15.7801 3.44524 16.3535 3.66517 16.8757C3.8851 17.398 4.25856 17.8461 4.73917 18.1645C5.21978 18.4829 5.78635 18.6575 6.36853 18.6667H18.8812V15.7947H6.36853L7.82612 14.3587H17.4236C17.6965 14.3571 17.9634 14.2813 18.1939 14.1399C18.4243 13.9984 18.6091 13.797 18.7271 13.5587C23.3256 4.492 22.753 5.53467 24 2.86533H6.17446L5.71612 1.088C5.64052 0.780388 5.46082 0.50614 5.20564 0.30896C4.95045 0.11178 4.63448 0.00301535 4.30808 0L0 0Z" fill="#577079"/>
<path d="M20.4999 22C20.4999 22.3956 20.3788 22.7822 20.1519 23.1111C19.9251 23.44 19.6026 23.6964 19.2254 23.8478C18.8481 23.9991 18.433 24.0387 18.0325 23.9616C17.632 23.8844 17.2642 23.6939 16.9754 23.4142C16.6867 23.1345 16.4901 22.7781 16.4104 22.3902C16.3307 22.0022 16.3716 21.6001 16.5279 21.2346C16.6841 20.8692 16.9488 20.5568 17.2883 20.3371C17.6278 20.1173 18.027 20 18.4353 20C18.9829 20 19.508 20.2107 19.8952 20.5858C20.2824 20.9609 20.4999 21.4696 20.4999 22Z" fill="#577079"/>
<path d="M6.42786 24C6.83619 24 7.23536 23.8827 7.57487 23.6629C7.91439 23.4432 8.17901 23.1308 8.33528 22.7654C8.49154 22.3999 8.53242 21.9978 8.45276 21.6098C8.3731 21.2219 8.17647 20.8655 7.88773 20.5858C7.599 20.3061 7.23112 20.1156 6.83064 20.0384C6.43015 19.9613 6.01503 20.0009 5.63778 20.1522C5.26053 20.3036 4.93808 20.56 4.71123 20.8889C4.48437 21.2178 4.36328 21.6044 4.36328 22C4.36328 22.5304 4.5808 23.0391 4.96798 23.4142C5.35516 23.7893 5.8803 24 6.42786 24Z" fill="#577079"/>
</svg>
