<svg width="32" height="32" viewBox="0 0 32 32" fill="none" xmlns="http://www.w3.org/2000/svg">
<g clip-path="url(#clip0_2176_1132)">
<path d="M6.62744 21.3353C6.62744 21.3353 6.49837 23.0748 6.1971 23.391L0.183192 29.7032C-0.044886 29.9378 -0.0620995 30.2998 0.143386 30.5188L1.3849 31.8148C1.58931 32.0304 1.94111 32.0125 2.16811 31.779L8.23259 25.4187C8.52308 25.1126 10.1777 24.9785 10.1777 24.9785L6.62744 21.3364V21.3353ZM19.8743 15.5269C19.8743 11.706 22.8672 8.59452 26.5487 8.59452C27.0952 8.59452 27.6224 8.66831 28.1302 8.79791L30.3852 6.45957C30.5767 6.2696 30.6864 6.19145 30.7154 5.83391C30.7972 4.82506 29.8892 2.43199 29.0587 1.61307C28.6175 1.18518 26.2077 -0.082864 25.0824 0.00427864C24.7951 0.0266229 24.4821 0.339443 24.4821 0.339443L6.98358 18.4908C6.76841 18.7087 6.78993 19.0908 7.02874 19.3399L12.0701 24.573C12.3068 24.821 12.6747 24.8433 12.8878 24.6199L20.069 17.1681C19.9452 16.6396 19.8753 16.0922 19.8753 15.5258L19.8743 15.5269ZM11.6053 21.1543C11.4784 21.2884 11.3084 21.361 11.1212 21.361C10.8953 21.361 10.6661 21.2559 10.4908 21.0772C10.3186 20.9007 10.2165 20.6638 10.2153 20.427C10.2153 20.2292 10.2831 20.0505 10.409 19.9209L26.8414 3.40062C26.8737 3.3671 26.9027 3.33135 26.9274 3.29559C27.0027 3.19169 27.1233 3.0364 27.3287 3.0364C27.5138 3.0364 27.6439 3.1727 27.6859 3.21851C27.7289 3.26319 27.8688 3.40844 27.8559 3.614C27.8451 3.8151 27.7052 3.92682 27.602 4.0095C27.5697 4.03407 27.5342 4.06312 27.5009 4.09887L11.6053 21.1532V21.1543Z" fill="#FF7922"/>
<path d="M23.2164 17.7725C22.2664 16.2352 22.119 14.537 22.2373 13.145C21.7898 13.946 21.5208 14.8688 21.5208 15.8598C21.5208 18.8651 23.8661 21.3006 26.7602 21.3006C27.3164 21.3006 27.8436 21.1855 28.3481 21.0179C26.1502 20.7688 24.232 19.417 23.2164 17.7714V17.7725ZM26.2954 14.9269C27.6165 17.0496 29.6574 17.9065 31.8037 17.2954C31.9242 16.8373 32.0006 16.3603 32.0006 15.862C32.0006 12.8567 29.6552 10.4211 26.7613 10.4211C26.587 10.4211 26.417 10.4402 26.2449 10.4581C25.9242 11.2468 25.2788 13.2924 26.2965 14.9269H26.2954Z" fill="#FF7922"/>
<path d="M23.7092 11.4445C23.6801 11.5115 23.6554 11.5853 23.6317 11.6546C23.3154 12.9058 22.9819 15.2274 24.1631 17.1401C25.3143 19.0092 27.8554 20.4135 30.4859 19.6762C30.7871 19.3544 31.0485 18.9947 31.268 18.6037C31.0098 18.6405 30.7462 18.6729 30.4891 18.6729C28.4665 18.6729 26.601 17.5781 25.3466 15.5637C24.3095 13.8957 24.5763 11.9886 24.9303 10.7798C24.4935 10.9474 24.0803 11.1652 23.7092 11.4434V11.4445Z" fill="#FF7922"/>
</g>
<defs>
<clipPath id="clip0_2176_1132">
<rect width="32" height="32" fill="white"/>
</clipPath>
</defs>
</svg>
