<svg width="29" height="29" viewBox="0 0 29 29" fill="none" xmlns="http://www.w3.org/2000/svg">
<path fill-rule="evenodd" clip-rule="evenodd" d="M1.8125 14.5C1.8125 11.7812 6.34375 5.4375 14.5 5.4375C22.6562 5.4375 27.1875 11.7812 27.1875 14.5C27.1875 17.2187 22.6562 23.5625 14.5 23.5625C6.34375 23.5625 1.8125 17.2187 1.8125 14.5ZM14.5 20.2396C16.0222 20.2396 17.4821 19.6349 18.5585 18.5585C19.6349 17.4821 20.2396 16.0222 20.2396 14.5C20.2396 12.9778 19.6349 11.5179 18.5585 10.4415C17.4821 9.36512 16.0222 8.76042 14.5 8.76042C12.9778 8.76042 11.5179 9.36512 10.4415 10.4415C9.36512 11.5179 8.76042 12.9778 8.76042 14.5C8.76042 16.0222 9.36512 17.4821 10.4415 18.5585C11.5179 19.6349 12.9778 20.2396 14.5 20.2396ZM17.7625 14.5C17.7625 15.3653 17.4188 16.1951 16.8069 16.8069C16.1951 17.4188 15.3653 17.7625 14.5 17.7625C13.6347 17.7625 12.8049 17.4188 12.1931 16.8069C11.5812 16.1951 11.2375 15.3653 11.2375 14.5C11.2375 13.6347 11.5812 12.8049 12.1931 12.1931C12.8049 11.5812 13.6347 11.2375 14.5 11.2375C15.3653 11.2375 16.1951 11.5812 16.8069 12.1931C17.4188 12.8049 17.7625 13.6347 17.7625 14.5Z" fill="#EEEEEE"/>
</svg>
