<svg width="16" height="16" viewBox="0 0 16 16" fill="none" xmlns="http://www.w3.org/2000/svg">
<g clip-path="url(#clip0_2175_2307)">
<path d="M11.7831 16C11.6011 16 11.4288 15.9091 11.3248 15.7597C11.2208 15.6104 11.198 15.4188 11.263 15.2468C11.4613 14.7208 11.6043 14.1851 11.6953 13.6429C11.3313 13.9123 10.9445 14.1558 10.5414 14.3701C10.4569 14.4156 10.3691 14.4351 10.2814 14.4351C10.0961 14.4351 9.91406 14.3409 9.81005 14.1721C9.13069 13.0844 8.68536 11.8766 8.49358 10.6266C7.90198 11.448 7.45992 12.3831 7.20314 13.3799C7.16088 13.539 7.0536 13.6688 6.90733 13.7403C6.82933 13.776 6.74806 13.7955 6.66355 13.7955C6.58878 13.7955 6.51077 13.7792 6.43926 13.75C5.79566 13.4675 5.19432 13.1201 4.63848 12.711C4.77826 13.5714 5.0513 14.4123 5.45435 15.1851C5.54538 15.3571 5.53562 15.5649 5.43485 15.7305C5.33408 15.8961 5.15206 15.9968 4.96027 15.9968H1.63176C1.43998 15.9968 1.2612 15.8993 1.16043 15.737C0.399813 14.526 0 13.1364 0 11.7208C0 9.92858 0.698859 8.24675 1.96331 6.98701L3.82586 5.12662C4.38494 4.56818 4.69048 3.82792 4.69048 3.03896C4.69048 2.80195 4.84002 2.59416 5.06104 2.51299C5.1228 2.49026 5.18456 2.48051 5.24632 2.48051C5.4121 2.48051 5.57138 2.5552 5.68189 2.6883C6.3515 3.51949 6.84883 4.52272 7.14138 5.62013C7.75246 4.00974 8.06776 2.28896 8.06776 0.558442C8.06776 0.321429 8.2173 0.113636 8.43832 0.0324675C8.50008 0.00974027 8.56184 0 8.6236 0C8.78938 0 8.94866 0.0746754 9.05592 0.207792C10.8535 2.43507 11.9521 5.29221 12.2187 8.37338C12.7485 7.51949 13.0313 6.53896 13.0313 5.51949C13.0313 5.28246 13.1808 5.07467 13.4019 4.9935C13.4636 4.97078 13.5254 4.96104 13.5871 4.96104C13.7529 4.96104 13.9122 5.03571 14.0227 5.16883C16.2818 7.97403 16.6491 12.4026 14.8971 15.7013C14.7996 15.8831 14.611 15.9968 14.4063 15.9968H11.7831V16Z" fill="#94B0BF"/>
</g>
<defs>
<clipPath id="clip0_2175_2307">
<rect width="16" height="16" fill="white"/>
</clipPath>
</defs>
</svg>
