<svg width="32" height="32" viewBox="0 0 32 32" fill="none" xmlns="http://www.w3.org/2000/svg">
<g clip-path="url(#clip0_2176_405)">
<mask id="mask0_2176_405" style="mask-type:luminance" maskUnits="userSpaceOnUse" x="0" y="0" width="32" height="32">
<path d="M32 0H0V32H32V0Z" fill="white"/>
</mask>
<g mask="url(#mask0_2176_405)">
<path d="M16 0C7.17819 0 0 7.17896 0 15.9985C0 24.8167 7.17819 32 16 32C24.8204 32 32 24.8152 32 15.9985C32 7.17896 24.8204 0 16 0ZM1.80364 15.9985C1.80364 12.8512 2.83345 9.93944 4.57309 7.58329L5.02691 7.67348C4.96873 8.80504 5.15782 9.66311 5.31055 10.146C4.80145 11.5713 3.89091 14.8379 3.59418 15.9055C3.22327 16.1818 2.736 16.5512 2.30691 16.8683L1.81236 16.333C1.808 16.2225 1.80364 16.1091 1.80364 15.9985ZM9.92729 24.5912C9.86181 24.5039 8.48148 22.6132 8.43781 19.5124C9.39781 18.474 11.2276 16.5207 12.0829 15.6073C13.4647 16.1745 16.0785 17.1868 18.0509 17.6144C18.3709 18.4332 19.3367 20.9799 19.5389 22.5419C18.896 23.4117 17.2655 25.4246 15.5607 26.5314C14.48 26.4441 11.5956 26.0878 10.0087 24.7977L10.0524 24.7628L9.92871 24.5941L9.92729 24.5912ZM6.05381 7.15864C6.71129 6.27579 8.51929 4.54504 10.064 3.14444C10.3069 3.13863 10.5513 3.1299 10.7985 3.1299C12.2822 3.1299 13.5229 3.28988 14.2924 3.40623L14.7942 5.24462C13.4705 6.28018 11.4153 7.944 10.2735 9.16279C8.97452 9.22098 7.04871 9.41298 6.14981 9.50459C6.02762 8.98684 5.92436 8.17523 6.0509 7.15864H6.05381ZM28.7636 14.8044C28.3913 15.1128 27.792 15.5608 27.0473 15.9884C26.5236 15.2932 25.2524 13.8009 23.5127 12.8672C23.3702 10.8601 22.8189 9.05956 22.4276 7.9949L24.3127 6.36599C26.4655 7.9571 28.1295 10.2725 28.6851 11.0957L28.7622 14.8044H28.7636ZM22.5425 12.9864C21.7076 13.7486 19.4735 15.7862 18.4465 16.7039C16.6182 16.3505 13.9404 15.3106 12.5295 14.7332C12.0742 13.526 11.4051 10.5634 11.1956 9.61369C12.3011 8.49084 14.1775 6.97102 15.4109 6.00676C16.0364 6.14779 17.4647 6.49102 18.2938 6.80231C19.5244 7.26187 20.912 7.96 21.4851 8.25671C21.8589 9.26027 22.416 11.0448 22.544 12.9894L22.5425 12.9864ZM16.6022 29.1072L16.2705 27.231C17.9433 26.082 19.4647 24.2538 20.2095 23.2604C21.1753 23.2532 23.5404 23.2241 24.6458 23.195C24.9658 23.627 25.4167 24.4108 25.4938 25.4202C25.1244 25.9918 24.4756 26.9619 23.7716 27.8636C22.2924 28.8381 20.624 29.5362 18.8291 29.91C18.2473 29.7588 17.4327 29.5086 16.6036 29.1057L16.6022 29.1072ZM26.3767 24.7105C26.1905 23.8146 25.7905 23.1077 25.4662 22.6597C25.8589 21.6126 26.9382 18.6747 27.2756 16.9817C28.08 16.5483 28.7404 16.0727 29.1956 15.7135L30.1527 17.0312C29.9491 19.8004 28.9571 22.3587 27.3891 24.4603L26.3782 24.7119L26.3767 24.7105ZM24.5876 5.36242L24.1804 4.41124C25.8487 5.59222 27.2524 7.12225 28.2822 8.89807C27.3804 7.77819 26.1004 6.40379 24.5876 5.36388V5.36242ZM14.6967 2.47832H14.688C14.2124 2.4056 13.4807 2.29943 12.5716 2.22234C13.6684 1.95037 14.8175 1.80492 16 1.80492H16.0407L14.6953 2.47977L14.6967 2.47832ZM2.69673 17.7904C3.09673 17.4995 3.584 17.1359 3.98545 16.8276C5.02836 17.7337 6.73452 19.0732 7.46181 19.6447C7.51271 22.0155 8.256 23.6982 8.74471 24.5548L6.7549 26.5067V26.7598C4.80873 25.0872 3.32218 22.8983 2.50327 20.4069L2.69673 17.7889V17.7904ZM16.2429 30.022C16.3593 30.0744 16.4756 30.1296 16.592 30.1791C16.4364 30.1849 16.2764 30.1907 16.1178 30.1907L16.2444 30.0206L16.2429 30.022Z" fill="#FF7922"/>
</g>
</g>
<defs>
<clipPath id="clip0_2176_405">
<rect width="32" height="32" fill="white"/>
</clipPath>
</defs>
</svg>
