<svg width="104" height="56" viewBox="0 0 104 56" fill="none" xmlns="http://www.w3.org/2000/svg">
<path d="M19.3373 7.66658C20.8526 5.87271 23.2225 4.84248 25.5666 4.99541C27.6571 5.08634 29.6755 6.11658 31.0135 7.72341C32.1845 9.12151 32.8381 10.9495 32.7927 12.7774C32.7927 13.5121 32.6309 14.2303 32.4773 14.9443C33.237 14.6932 33.974 14.3791 34.7214 14.0949L39.0973 12.3889C39.5694 12.2081 40.0322 11.9973 40.5188 11.8557C41.1527 11.6728 41.8465 11.71 42.4547 11.9673C43.3237 12.3238 43.9916 13.1277 44.1865 14.0484C44.3452 14.8017 44.2164 15.6212 43.7927 16.2691C43.4711 16.764 42.9959 17.1247 42.5598 17.5111L37.5655 21.909C37.1603 22.2593 36.7563 22.6127 36.3769 22.9909C38.1798 22.8566 40.0611 22.8927 41.7465 23.6285C42.4361 23.9095 43.0216 24.3776 43.5948 24.8437C43.9215 24.5884 44.2638 24.3528 44.6039 24.1162C44.7565 23.9984 44.939 23.8858 44.9998 23.6894C45.1503 23.2492 45.2008 22.7687 45.4472 22.3647C45.8935 21.6217 46.6697 21.0679 47.5336 20.949C48.1789 20.8653 48.8314 20.9149 49.4798 20.9067C50.1282 20.9149 50.7807 20.8664 51.427 20.9459C52.5011 21.0792 53.4515 21.8832 53.7855 22.9113C53.9567 23.4197 53.8268 24.0263 54.2164 24.451C54.4752 23.7473 54.5782 23.0012 54.7318 22.2707C54.8442 21.7344 54.9432 21.1784 55.2266 20.7C55.6256 20.0304 56.2956 19.5168 57.0584 19.3443C57.48 19.2482 57.915 19.2482 58.3459 19.2482L62.5713 19.2523C63.6258 19.2523 64.6938 19.3381 65.7071 19.6532C66.2276 19.8144 66.7204 20.0531 67.21 20.2918C67.3956 19.9746 67.5739 19.6501 67.8058 19.3629C68.1192 18.9712 68.5522 18.686 69.0191 18.5124C69.5603 18.314 70.1458 18.3192 70.7148 18.3182H73.497C74.1289 18.3171 74.7907 18.3471 75.3608 18.6509C76.373 19.1531 77.0379 20.2877 76.9534 21.4213C76.8957 22.094 76.6936 22.7429 76.5864 23.4084C77.4173 23.2038 78.2533 23.0002 79.1109 22.9578C80.5912 22.8762 82.1106 22.9227 83.5301 23.3918C83.9321 23.5148 84.3032 23.7525 84.7259 23.8031C85.0434 23.7122 85.3145 23.5076 85.6196 23.3825C86.0845 23.1728 86.6051 23.1769 87.105 23.1738L90.5067 23.1728C90.985 23.1604 91.4551 23.2513 91.9221 23.3422C92.2839 23.4177 92.6436 23.2999 93.0003 23.243C93.5034 23.1521 94.0177 23.1738 94.527 23.1769L97.4154 23.1759C97.9772 23.1728 98.5565 23.2513 99.0513 23.5375C99.9976 24.048 100.608 25.1144 100.567 26.1911C100.539 26.9455 100.189 27.6316 99.9429 28.3301L93.9415 44.3199C93.4302 45.7635 92.622 47.1254 91.4891 48.165C90.5655 49.002 89.4079 49.5486 88.2008 49.8297C86.7968 50.1572 85.3413 50.1913 83.9094 50.087C83.2848 50.0415 82.6374 49.9557 82.0941 49.6199C81.2179 49.1053 80.6541 48.0999 80.685 47.08C80.7087 46.3484 80.9396 45.6457 81.0365 44.9234C79.9109 44.8738 78.7821 44.9668 77.6595 44.8562C77.0204 44.7839 76.4225 45.0712 75.7978 45.1435C74.9423 45.2489 74.0588 45.2127 73.2301 44.9658C72.6652 44.7984 72.159 44.4904 71.6508 44.2021C71.2828 44.4253 70.9169 44.6651 70.5035 44.7953C70.1056 44.9193 69.684 44.9141 69.2727 44.9172L66.1792 44.9162C65.6761 44.9162 65.1607 44.9255 64.6804 44.757C63.7093 44.4212 62.963 43.5346 62.7764 42.524C62.6259 41.8007 62.8568 41.0773 63.0001 40.3726L63.6794 37.1269L61.5662 37.3873C61.2797 38.6345 61.0467 39.8942 60.7756 41.1455C60.6241 41.8151 60.5467 42.5075 60.2942 43.1502C59.8736 44.1629 58.8325 44.8903 57.7336 44.9069C56.5636 44.9286 55.3926 44.8955 54.2226 44.9151C53.6113 44.912 52.964 44.9513 52.4001 44.6702C52.0702 44.5173 51.7919 44.2641 51.4456 44.1453C51.2858 44.168 51.1219 44.2579 51.0631 44.416C50.8848 44.8438 50.8374 45.3223 50.6023 45.7284C50.256 46.3318 49.6911 46.8092 49.0386 47.0459C48.5201 47.2339 47.9603 47.2195 47.4171 47.2184C46.7996 47.2102 46.1811 47.2122 45.5626 47.2195C45.0534 47.2195 44.5297 47.2226 44.0442 47.049C43.267 46.7731 42.6093 46.1562 42.3093 45.3832C42.1382 44.9554 42.1465 44.4811 41.9959 44.0492C41.7702 43.6844 41.3836 43.4633 41.0579 43.1998C40.5579 43.5987 40.0467 43.9913 39.4694 44.2724C38.1025 44.9472 36.5625 45.2034 35.0482 45.1962C33.6937 45.2045 32.3144 45.0092 31.0743 44.4419C29.8332 43.8756 28.8096 42.8474 28.256 41.5971C27.7633 40.4656 27.62 39.2039 27.6984 37.9794C27.8035 36.1101 28.4086 34.3193 28.6601 32.4728C28.3179 32.9171 28.0457 33.41 27.7685 33.8967L21.2062 45.0877C20.9248 45.5589 20.6825 46.059 20.3341 46.4868C19.6548 47.3104 18.4982 47.6865 17.4622 47.4468C16.4881 47.2401 15.6521 46.492 15.3356 45.5465C15.1728 45.0774 15.1717 44.5741 15.1789 44.0843L15.416 32.2341C15.4274 31.8486 15.4593 31.4622 15.4181 31.0778C15.381 30.7357 15.2191 30.4268 15.0676 30.124C14.6027 29.2322 14.179 28.3198 13.7358 27.4177L7.46732 14.592C7.20136 14.0319 6.89521 13.4894 6.66327 12.9128C6.27671 11.9477 6.4437 10.78 7.10446 9.97401C7.79615 9.10601 9.00325 8.69681 10.0784 8.96754C10.8072 9.13804 11.3814 9.64541 11.9782 10.0649L17.6158 14.098C17.5612 13.5535 17.4952 13.0089 17.5066 12.4602C17.5416 10.7149 18.2024 8.99028 19.3373 7.66658ZM24.576 7.56118C23.2359 7.70378 21.9721 8.41471 21.1413 9.47594C20.2413 10.6116 19.8589 12.145 20.13 13.57C20.3743 14.9557 21.2237 16.2174 22.4123 16.9655C23.7121 17.7984 25.3934 17.9906 26.8459 17.4708C28.4622 16.9201 29.7394 15.492 30.1157 13.8232C30.4764 12.3052 30.1074 10.6281 29.1157 9.42014C28.0468 8.07991 26.2748 7.35244 24.576 7.56118ZM9.01047 11.7668C9.01974 11.9673 9.11046 12.1512 9.1888 12.3321L16.2809 26.8308L17.5756 29.4689C17.7488 29.8088 17.9323 30.1571 17.9684 30.5446C18.0178 31.0953 17.9663 31.6471 17.9653 32.1989L17.722 44.2962C17.7313 44.509 17.723 44.7488 17.8735 44.9203C18.0333 44.9554 18.2415 44.9916 18.357 44.8418C18.6735 44.4749 18.8672 44.0223 19.1188 43.6121L29.0786 26.6272C29.4085 26.0764 29.6796 25.4709 30.1641 25.0338L40.7002 15.7514C41.0383 15.4403 41.4486 15.182 41.6846 14.7769C41.7826 14.6033 41.6527 14.4225 41.5104 14.3264C41.3074 14.2913 41.1053 14.3533 40.9136 14.4142L20.7196 22.281C20.1341 22.5135 19.5548 22.7749 18.9343 22.8989C19.3074 22.0733 19.9476 21.413 20.465 20.6783C20.6537 20.389 20.9753 20.0965 20.9341 19.7266C20.6434 19.3122 20.1671 19.087 19.7723 18.7863L9.85884 11.6738C9.70834 11.5798 9.55268 11.4796 9.37435 11.4517C9.18674 11.4103 9.03314 11.5974 9.01047 11.7668ZM69.683 21.1381C69.5108 21.5969 69.4572 22.0888 69.3521 22.5652L65.6153 40.3065C65.4844 40.9719 65.2473 41.6343 65.3339 42.3225C66.4379 42.4269 67.5461 42.3421 68.6521 42.3773C69.0768 42.369 69.5222 42.4269 69.9293 42.2739C70.1726 41.7852 70.2066 41.2261 70.3314 40.7002L74.3444 21.6672C74.3763 21.475 74.4073 21.2797 74.3846 21.0854C74.2052 20.8457 73.8702 20.8881 73.6084 20.8695L70.3056 20.8736C70.084 20.8953 69.7551 20.8633 69.683 21.1381ZM57.5264 21.8718C57.3873 22.0351 57.3388 22.251 57.2883 22.4536C57.1811 22.9392 57.0976 23.429 56.9914 23.9137L53.2567 41.5661C53.2217 41.7666 53.1918 41.9722 53.2186 42.1778C53.3763 42.3897 53.6721 42.3525 53.9061 42.3773L56.7986 42.3793C57.1553 42.3731 57.5295 42.4093 57.8697 42.2739C57.9645 42.1055 58.0161 41.9174 58.0614 41.7304L59.5005 34.8143C60.5591 34.7874 61.6281 34.8763 62.6785 34.6965C63.4691 34.5694 64.2598 34.308 64.8937 33.8037C65.5679 33.2767 66.0204 32.5193 66.3266 31.7298C66.7802 30.5601 66.9688 29.3118 67.243 28.0935C67.51 26.8928 67.6997 25.6187 67.3492 24.4138C67.1265 23.613 66.5905 22.9031 65.8699 22.4866C64.97 21.9627 63.9072 21.8181 62.8816 21.8067C61.3673 21.8026 59.853 21.8191 58.3387 21.7984C58.0666 21.8015 57.7882 21.7912 57.5264 21.8718ZM47.7511 23.5365C47.5964 23.6967 47.5727 23.9302 47.5315 24.1389C47.4573 24.6463 47.3996 25.1557 47.3037 25.66C46.6553 25.907 45.9853 26.1539 45.4595 26.622C44.6503 27.3144 44.1885 28.326 43.9566 29.349C43.7329 30.3358 43.6113 31.396 43.9422 32.3746C44.2648 33.3552 44.9864 34.1354 45.7358 34.8153C46.3625 35.3888 47.1016 35.8714 47.5501 36.6123C47.9263 37.2168 47.881 37.9866 47.6583 38.6366C47.5552 38.9383 47.3356 39.2587 46.9913 39.2876C46.7264 39.3289 46.4728 39.1202 46.4512 38.8546C46.3811 38.2956 46.6553 37.7552 46.5862 37.1972C46.4131 36.9884 46.1182 37.006 45.875 36.9895C45.0823 36.9853 44.2895 37.0091 43.4968 36.9874C43.1639 36.9946 42.8144 36.9585 42.499 37.0825C42.332 37.2251 42.3073 37.4658 42.2557 37.6684C42.1155 38.4837 42.0681 39.3351 42.2743 40.1442C42.4237 40.7363 42.7454 41.2912 43.2195 41.6818C43.6875 42.0776 44.2761 42.277 44.8452 42.4775C44.8163 42.99 44.7235 43.4953 44.6637 44.0058C44.6545 44.1949 44.6091 44.4284 44.7658 44.5741C45.0101 44.6909 45.2894 44.6754 45.5544 44.6837L47.3191 44.6826C47.6521 44.6775 48.0026 44.7054 48.318 44.5762C48.6056 43.9221 48.5572 43.1771 48.7128 42.4878C49.1179 42.3483 49.5272 42.2192 49.9179 42.0414C50.6858 41.6953 51.3363 41.099 51.7569 40.3685C52.1991 39.6059 52.4352 38.741 52.5723 37.874C52.6929 37.0783 52.7351 36.2506 52.5125 35.4684C52.3279 34.8009 51.9599 34.1984 51.5136 33.6735C50.9126 32.9677 50.2117 32.356 49.4973 31.7691C49.1252 31.4529 48.7314 31.1274 48.5201 30.6748C48.317 30.2377 48.3881 29.7313 48.5366 29.2901C48.618 29.0576 48.7499 28.7962 49.0097 28.7311C49.2375 28.6587 49.5622 28.7383 49.5962 29.0163C49.6952 29.5619 49.4519 30.092 49.4375 30.6355C49.42 30.7616 49.4849 30.9093 49.6189 30.9414C49.9405 31.0375 50.2817 31.0085 50.6137 31.0127C51.5785 30.9868 52.5434 31.0323 53.5082 30.9817C53.7577 30.3141 53.8433 29.598 53.8082 28.8881C53.7866 28.0305 53.4711 27.1552 52.8361 26.5631C52.3661 26.1167 51.7466 25.8925 51.1549 25.659C51.2095 25.1847 51.2899 24.7145 51.3569 24.2423C51.3734 24.0397 51.4177 23.8196 51.326 23.6295C51.2126 23.4683 50.991 23.4797 50.8178 23.459C50.1653 23.4352 49.5117 23.4745 48.8592 23.4528C48.4891 23.458 48.1067 23.4187 47.7511 23.5365ZM34.3317 26.3182C33.5493 26.7905 32.9453 27.5159 32.5237 28.3208C32.0412 29.2457 31.7639 30.2614 31.5516 31.2782L30.5125 36.2217C30.2692 37.3935 30.1002 38.618 30.3404 39.8053C30.5043 40.632 30.9702 41.4152 31.6887 41.8709C32.7401 42.5519 34.039 42.6573 35.2585 42.6397C36.6233 42.6263 38.0664 42.3618 39.1519 41.4783C40.1415 40.6826 40.6796 39.4757 41.0022 38.2749C41.1115 37.8234 41.2682 37.3625 41.2125 36.8934C41.1775 36.6629 40.8971 36.665 40.7198 36.6454C39.8951 36.6154 39.0694 36.6619 38.2437 36.6412C37.75 36.6474 37.2459 36.5896 36.7604 36.7043C36.3748 37.3387 36.4903 38.1685 36.0501 38.7813C35.8357 39.0665 35.3368 39.1595 35.0822 38.8846C34.8709 38.5446 34.975 38.121 35.0265 37.751C35.2069 36.8996 35.3368 36.0378 35.5553 35.1946L40.828 35.2049C41.0765 35.1987 41.3342 35.1997 41.5733 35.1191C41.8217 34.7037 41.8496 34.2046 41.9588 33.7427C42.2031 32.4387 42.5794 31.1542 42.6619 29.8254C42.7072 28.9873 42.6423 28.11 42.2567 27.3505C41.9166 26.6778 41.2971 26.1777 40.6033 25.907C39.625 25.5184 38.555 25.4606 37.5149 25.4854C36.4109 25.5143 35.2842 25.7354 34.3317 26.3182ZM77.375 25.8615C76.671 26.1116 76.038 26.5621 75.5793 27.1542C75.0443 27.8331 74.7382 28.6556 74.4938 29.4761C74.3671 29.8894 74.3196 30.3214 74.297 30.7512C75.2948 30.9104 76.3071 30.7895 77.3121 30.8329C77.7451 30.8143 78.2131 30.9083 78.6203 30.7192C78.8708 30.2077 78.8553 29.5918 79.1852 29.1144C79.3707 28.8365 79.781 28.7373 80.0675 28.914C80.2149 29.0111 80.2459 29.2023 80.251 29.3666C80.2531 29.7923 80.15 30.2087 80.0737 30.6262C79.9964 30.9879 79.9449 31.3599 79.8078 31.7071C79.3099 31.8765 78.7738 31.8352 78.2615 31.9168C76.9493 32.0987 75.5979 32.4159 74.5165 33.2219C73.5527 33.9422 72.9651 35.0551 72.6404 36.1948C72.3394 37.2478 72.1467 38.34 72.1559 39.4385C72.1693 40.2031 72.2971 41.0029 72.7373 41.6467C73.1002 42.1809 73.7063 42.524 74.3433 42.6056C75.0907 42.6986 75.8762 42.6315 76.5648 42.307C77.072 42.0683 77.4925 41.687 77.8935 41.3026C77.877 41.6446 77.8812 41.9867 77.9131 42.3277C78.9821 42.4217 80.0552 42.3452 81.1252 42.3773C81.5509 42.37 81.9952 42.4248 82.4044 42.277C82.5364 42.0228 82.5807 41.7356 82.6343 41.4576C82.8539 40.1546 83.1085 38.8567 83.3909 37.5661L84.8217 30.8349C85.0351 29.7975 85.1691 28.6897 84.8197 27.6667C84.563 26.901 83.9435 26.2924 83.2074 25.9814C82.3281 25.598 81.3571 25.5029 80.4087 25.4812C79.3882 25.4657 78.345 25.5143 77.375 25.8615ZM86.4133 25.815C86.27 25.971 86.2958 26.2066 86.2752 26.403L86.2721 29.102C86.2257 30.651 86.268 32.201 86.2463 33.75C86.1917 35.5397 86.2443 37.3305 86.2113 39.1212L86.2154 42.2285C86.2072 42.4847 86.2185 42.7513 86.1298 42.9962C86.0113 43.2318 85.7464 43.3445 85.5052 43.4054C85.0135 43.515 84.5063 43.4778 84.0074 43.4809C83.7146 44.259 83.6352 45.0918 83.4497 45.8989C83.3713 46.2905 83.259 46.6801 83.2425 47.082C83.2281 47.2277 83.2837 47.4013 83.4456 47.4375C83.961 47.5842 84.5063 47.5584 85.0372 47.5708C86.2164 47.5873 87.4307 47.5212 88.5327 47.0614C89.313 46.7421 89.9882 46.1882 90.4851 45.5072C91.1582 44.5907 91.5819 43.5232 91.985 42.4672L97.5751 27.4012C97.737 26.9227 98.0081 26.4577 98.0029 25.9411C97.8297 25.6848 97.4813 25.7292 97.2143 25.7096C96.1794 25.7168 95.1434 25.7282 94.1085 25.7086C93.8126 25.7199 93.492 25.6817 93.2209 25.8233C92.9622 26.2521 92.9055 26.7636 92.7673 27.2379L90.5191 36.0254C90.4057 36.4997 90.3439 37.0091 90.0387 37.409C90.013 36.8355 90.1161 36.2682 90.1923 35.703L91.2541 26.5146C91.2675 26.3058 91.2922 26.0878 91.2294 25.8842C91.049 25.6941 90.7521 25.7334 90.515 25.7117C89.445 25.7148 88.375 25.7292 87.305 25.7086C87.0071 25.7168 86.6916 25.6889 86.4133 25.815Z" fill="#0F2335"/>
<path d="M24.576 7.56124C26.2748 7.35251 28.0468 8.07998 29.1157 9.42021C30.1074 10.6282 30.4764 12.3053 30.1156 13.8232C29.7394 15.4921 28.4622 16.9201 26.8459 17.4709C25.3934 17.9907 23.7121 17.7985 22.4123 16.9656C21.2237 16.2175 20.3743 14.9558 20.13 13.5701C19.8589 12.1451 20.2413 10.6116 21.1412 9.47601C21.9721 8.41478 23.2359 7.70384 24.576 7.56124ZM21.4216 10.1683C20.5166 11.5096 20.4413 13.3417 21.2103 14.7625C21.2083 13.9131 21.1289 13.0389 21.4082 12.2205C21.9092 10.6178 23.2431 9.31171 24.8584 8.86221C25.6274 8.61524 26.4418 8.68345 27.2355 8.70205C26.7819 8.46438 26.2995 8.26804 25.7882 8.20501C24.1183 7.94668 22.3411 8.74751 21.4216 10.1683Z" fill="#F4D32F"/>
<path d="M21.4216 10.1682C22.3411 8.74732 24.1183 7.94649 25.7882 8.20482C26.2995 8.26786 26.7819 8.46419 27.2355 8.70186C26.4418 8.68326 25.6274 8.61506 24.8584 8.86202C23.2431 9.31152 21.9092 10.6177 21.4082 12.2204C21.1289 13.0388 21.2082 13.913 21.2103 14.7624C20.4413 13.3415 20.5166 11.5094 21.4216 10.1682ZM70.2231 21.5607C71.2859 21.508 72.358 21.4646 73.4176 21.5906C72.8321 21.7188 72.2353 21.7746 71.6446 21.8593C71.3684 21.9079 71.0797 21.9451 70.8354 22.0897C70.6643 22.346 70.6231 22.6612 70.5581 22.9567C70.4066 23.7875 70.22 24.6111 70.0468 25.4377L67.1729 39.085C66.9739 39.9685 66.8327 40.8654 66.5874 41.7386L65.9823 41.7169C66.1153 40.9088 66.306 40.1121 66.4719 39.3102L70.0623 22.252L70.2231 21.5607Z" fill="#FBEEAC"/>
<path d="M9.01047 11.7668C9.03315 11.5973 9.18674 11.4103 9.37435 11.4516C9.55268 11.4795 9.70834 11.5797 9.85884 11.6738L19.7723 18.7862C20.1671 19.0869 20.6434 19.3122 20.9341 19.7265C20.9753 20.0965 20.6537 20.3889 20.465 20.6782C19.9476 21.4129 19.3074 22.0732 18.9343 22.8989C19.5548 22.7749 20.1341 22.5134 20.7196 22.2809L40.9136 14.4142C41.1053 14.3532 41.3074 14.2912 41.5104 14.3263C41.6527 14.4224 41.7826 14.6033 41.6846 14.7769C41.4486 15.1819 41.0383 15.4403 40.7002 15.7513L30.1641 25.0337C29.6796 25.4708 29.4085 26.0764 29.0786 26.6271L19.1188 43.612C18.8672 44.0223 18.6735 44.4749 18.357 44.8417C18.2415 44.9915 18.0333 44.9554 17.8735 44.9202C17.723 44.7487 17.7313 44.509 17.722 44.2961L17.9653 32.1989C17.9663 31.6471 18.0178 31.0953 17.9684 30.5445C17.9323 30.157 17.7488 29.8088 17.5756 29.4688C17.1231 28.5998 16.7159 27.708 16.2809 26.8307L9.1888 12.332C9.11046 12.1512 9.01974 11.9672 9.01047 11.7668ZM37.0212 16.8198L25.2924 21.3871L21.9505 22.6767C21.6433 22.7966 21.3206 22.9206 21.0877 23.1655C20.832 23.429 20.665 23.7617 20.4991 24.0862C21.1639 24.0707 21.7505 23.7359 22.3587 23.5096L35.7996 18.2778C36.3955 18.0401 37.0408 17.8696 37.5386 17.4439C38.0561 16.9985 38.5674 16.5439 39.056 16.0665C38.3623 16.2742 37.6953 16.5563 37.0212 16.8198ZM18.8528 30.2138C18.8167 30.5972 18.7941 30.9826 18.792 31.3691C18.793 33.2642 18.7054 35.1594 18.6899 37.0545L18.5817 42.8453C18.8363 42.4537 19.1126 42.0734 19.3177 41.6528C19.5558 41.1548 19.4857 40.5854 19.5053 40.0512L19.663 32.514C19.6682 32.11 19.695 31.6874 19.5363 31.3061C19.3693 30.9072 19.1043 30.561 18.8528 30.2138ZM34.3317 26.3182C35.2842 25.7354 36.4109 25.5142 37.5149 25.4853C38.555 25.4605 39.625 25.5184 40.6033 25.9069C41.297 26.1776 41.9166 26.6778 42.2567 27.3505C42.6423 28.11 42.7072 28.9873 42.6619 29.8253C42.5794 31.1542 42.2031 32.4386 41.9588 33.7427C41.8496 34.2046 41.8217 34.7037 41.5733 35.1191C41.3342 35.1997 41.0764 35.1986 40.828 35.2048L35.5553 35.1945C35.3368 36.0377 35.2069 36.8995 35.0265 37.751C34.975 38.1209 34.8709 38.5446 35.0822 38.8845C35.3368 39.1594 35.8357 39.0664 36.0501 38.7812C36.4903 38.1684 36.3748 37.3387 36.7604 36.7042C37.2459 36.5895 37.75 36.6474 38.2437 36.6412C39.0694 36.6618 39.8951 36.6153 40.7198 36.6453C40.8971 36.6649 41.1775 36.6629 41.2125 36.8933C41.2682 37.3624 41.1115 37.8233 41.0022 38.2749C40.6796 39.4756 40.1415 40.6825 39.1519 41.4782C38.0664 42.3617 36.6233 42.6262 35.2585 42.6397C34.039 42.6572 32.7401 42.5518 31.6887 41.8709C30.9702 41.4152 30.5043 40.6319 30.3404 39.8052C30.1002 38.6179 30.2692 37.3934 30.5125 36.2216L31.5516 31.2782C31.7639 30.2614 32.0412 29.2456 32.5237 28.3208C32.9453 27.5158 33.5493 26.7904 34.3317 26.3182ZM34.9368 26.7108C34.1668 27.1076 33.5524 27.7679 33.1391 28.5243C32.6103 29.4895 32.3391 30.5683 32.1196 31.6398L31.0506 36.7703C30.8115 38.032 30.6795 39.4198 31.3052 40.5968C31.3155 40.0357 31.2898 39.4746 31.3341 38.9145C31.3805 38.2842 31.5083 37.6642 31.6372 37.0473L32.6237 32.3601C32.8597 31.2451 33.1617 30.1239 33.7431 29.134C34.1751 28.391 34.7801 27.738 35.5327 27.3164C36.38 26.8276 37.3603 26.6271 38.3283 26.5724C39.0735 26.5217 39.8188 26.6209 40.5652 26.6106C39.6951 26.1466 38.686 26.1167 37.7232 26.1198C36.7696 26.126 35.7924 26.2655 34.9368 26.7108ZM36.9562 29.258C36.7995 29.5101 36.7253 29.8026 36.6521 30.0878C36.4959 30.7493 36.3673 31.4171 36.2666 32.0893C36.7119 32.1038 37.1572 32.1017 37.6026 32.0842C37.752 31.3619 37.9355 30.6458 38.0376 29.9152C38.0592 29.6383 38.1128 29.3231 37.952 29.0761C37.6459 28.8798 37.149 28.916 36.9562 29.258Z" fill="#FE7901"/>
<path d="M37.0212 16.8197C37.6953 16.5562 38.3623 16.2741 39.056 16.0664C38.5674 16.5438 38.0561 16.9985 37.5387 17.4438C37.0408 17.8696 36.3955 18.0401 35.7996 18.2777L22.3587 23.5095C21.7505 23.7358 21.1639 24.0706 20.4991 24.0861C20.665 23.7616 20.832 23.4289 21.0877 23.1654C21.3206 22.9205 21.6433 22.7965 21.9505 22.6766C23.072 22.2654 24.1781 21.8148 25.2924 21.387L37.0212 16.8197Z" fill="#FFCB9C"/>
<path d="M69.683 21.1383C69.7551 20.8634 70.084 20.8955 70.3056 20.8738L73.6084 20.8696C73.8702 20.8882 74.2052 20.8459 74.3846 21.0856C74.4073 21.2799 74.3763 21.4752 74.3444 21.6674L70.3314 40.7003C70.2066 41.2263 70.1726 41.7853 69.9293 42.2741C69.5222 42.427 69.0768 42.3692 68.6521 42.3774C67.5461 42.3423 66.4379 42.427 65.3339 42.3227C65.2473 41.6345 65.4844 40.9721 65.6153 40.3066L69.3521 22.5653C69.4572 22.089 69.5108 21.5971 69.683 21.1383ZM70.2231 21.5609L70.0623 22.2522L66.4719 39.3105C66.306 40.1124 66.1153 40.9091 65.9823 41.7171L66.5874 41.7388C66.8327 40.8657 66.974 39.9687 67.1729 39.0852L70.0469 25.438L70.5581 22.957C70.6231 22.6614 70.6643 22.3463 70.8354 22.09C71.0797 21.9453 71.3684 21.9081 71.6446 21.8596C72.2353 21.7748 72.8322 21.719 73.4177 21.5909C72.358 21.4648 71.2859 21.5082 70.2231 21.5609Z" fill="#F3D330"/>
<path d="M57.5264 21.8717C57.7882 21.7911 58.0666 21.8014 58.3387 21.7983L62.8816 21.8066C63.9072 21.818 64.97 21.9626 65.8699 22.4865C66.5905 22.903 67.1265 23.6129 67.3492 24.4137C67.6997 25.6186 67.51 26.8927 67.243 28.0934C66.9688 29.3117 66.7802 30.56 66.3266 31.7297C66.0204 32.5192 65.5679 33.2766 64.8937 33.8036C64.2598 34.3079 63.4691 34.5693 62.6785 34.6964C61.6281 34.8762 60.5591 34.7873 59.5004 34.8142L58.0614 41.7303C58.0161 41.9173 57.9645 42.1054 57.8697 42.2738C57.5295 42.4092 57.1553 42.373 56.7986 42.3792C55.8348 42.3565 54.87 42.3813 53.9061 42.3772C53.6721 42.3524 53.3763 42.3896 53.2186 42.1777C53.1918 41.9721 53.2217 41.7665 53.2567 41.566L56.9914 23.9136C57.0976 23.4289 57.1811 22.9391 57.2883 22.4535C57.3388 22.2509 57.3872 22.035 57.5264 21.8717ZM57.9594 22.4938C57.8016 23.0838 57.6748 23.6821 57.5573 24.2814L54.2432 39.9757C54.1113 40.5544 53.9855 41.1351 53.903 41.7231L54.5205 41.722C54.6659 41.1258 54.7885 40.5244 54.9112 39.923L57.9923 25.3365L58.3212 23.7131C58.383 23.4465 58.4304 23.1623 58.6016 22.9412C58.9541 22.8492 59.3231 22.8658 59.685 22.8647L63.3959 22.872C64.0577 22.873 64.7164 22.9443 65.3782 22.9639C64.9123 22.7325 64.4144 22.563 63.8959 22.5113C62.5321 22.3522 61.157 22.4452 59.7891 22.4183C59.1778 22.4008 58.5645 22.4008 57.9594 22.4938ZM61.5642 25.2838C61.4492 25.67 61.3522 26.0614 61.2735 26.4566L60.3292 30.996C60.7354 30.9723 61.2157 31.0498 61.5446 30.7511C61.8899 30.405 61.9786 29.8966 62.0847 29.4378L62.6249 26.7862C62.6816 26.3884 62.7867 25.942 62.5888 25.5679C62.3435 25.2693 61.9054 25.3385 61.5642 25.2838ZM77.375 25.8614C78.345 25.5142 79.3882 25.4656 80.4087 25.4811C81.3571 25.5028 82.3281 25.5979 83.2074 25.9813C83.9435 26.2923 84.563 26.9009 84.8197 27.6666C85.1691 28.6896 85.0351 29.7974 84.8217 30.8348L83.3909 37.566C83.1085 38.8566 82.8539 40.1545 82.6343 41.4575C82.5807 41.7355 82.5364 42.0227 82.4044 42.2769C81.9952 42.4247 81.5509 42.3699 81.1252 42.3772C80.0552 42.3451 78.9821 42.4216 77.9131 42.3276C77.8811 41.9866 77.877 41.6445 77.8935 41.3025C77.4925 41.6869 77.0719 42.0682 76.5648 42.3069C75.8762 42.6314 75.0907 42.6985 74.3433 42.6055C73.7063 42.5239 73.1002 42.1808 72.7373 41.6466C72.2971 41.0028 72.1693 40.203 72.1559 39.4384C72.1466 38.3399 72.3394 37.2477 72.6404 36.1947C72.9651 35.055 73.5527 33.9421 74.5165 33.2218C75.5979 32.4158 76.9493 32.0986 78.2615 31.9167C78.7738 31.8351 79.3099 31.8764 79.8078 31.707C79.9449 31.3598 79.9964 30.9878 80.0737 30.6261C80.15 30.2086 80.2531 29.7922 80.251 29.3665C80.2459 29.2022 80.2149 29.011 80.0675 28.9139C79.781 28.7372 79.3707 28.8364 79.1851 29.1143C78.8553 29.5917 78.8707 30.2076 78.6203 30.7191C78.2131 30.9082 77.7451 30.8142 77.3121 30.8328C76.3071 30.7894 75.2948 30.9103 74.297 30.7511C74.3196 30.3213 74.3671 29.8893 74.4938 29.476C74.7381 28.6555 75.0443 27.833 75.5793 27.1541C76.038 26.562 76.671 26.1115 77.375 25.8614ZM77.4276 26.53C76.7112 26.8172 76.1215 27.3742 75.7432 28.0438C75.3701 28.7134 75.0959 29.4471 75.0216 30.2148L75.637 30.2107C75.8432 29.7343 76.0329 29.2487 76.2823 28.7919C76.6514 28.1203 77.208 27.5488 77.8894 27.1934C78.7398 26.7315 79.7181 26.6002 80.6716 26.563C81.5148 26.5176 82.3539 26.6343 83.194 26.6881C82.458 26.314 81.6354 26.158 80.8159 26.1321C79.6799 26.0991 78.4976 26.0898 77.4276 26.53ZM80.8798 29.7974C80.7386 30.3616 80.6561 30.9382 80.5407 31.5086C80.4768 31.7617 80.4252 32.0387 80.2469 32.2391C79.9985 32.4127 79.6769 32.4055 79.3882 32.4458C78.3059 32.5212 77.2173 32.67 76.1896 33.0327C75.4566 33.2911 74.7711 33.7137 74.2681 34.313C73.7104 34.9744 73.3981 35.8021 73.1754 36.6287C72.8909 37.7303 72.7146 38.8762 72.827 40.015C72.8682 40.4738 73.0486 40.9036 73.2517 41.3118C73.2599 40.4128 73.2218 39.5055 73.4012 38.6189C73.6558 37.2239 74.0887 35.7773 75.0948 34.7315C75.9184 33.8801 77.0637 33.4399 78.1986 33.1919C79.0852 32.98 79.9995 32.9511 80.8974 32.8137C81.0458 32.1544 81.2107 31.4972 81.3014 30.8266C81.3241 30.5858 81.355 30.3316 81.2695 30.1001C81.1685 29.9648 81.0107 29.8945 80.8798 29.7974ZM77.9997 35.3701C77.6544 35.6429 77.4822 36.0676 77.3606 36.4779C77.2235 36.9666 77.1173 37.4719 77.1297 37.9834C77.141 38.217 77.1781 38.5001 77.3977 38.6334C77.71 38.8049 78.1275 38.6644 78.3193 38.374C78.5347 38.0537 78.6027 37.6631 78.6842 37.2932L79.1315 34.9651C78.7419 35.055 78.3244 35.118 77.9997 35.3701ZM86.4133 25.8149C86.6916 25.6888 87.0071 25.7167 87.305 25.7085C88.375 25.7291 89.445 25.7147 90.515 25.7116C90.7521 25.7333 91.049 25.694 91.2293 25.8841C91.2922 26.0877 91.2675 26.3057 91.2541 26.5145L90.1923 35.7029C90.1161 36.2681 90.013 36.8354 90.0387 37.4089C90.3439 37.009 90.4057 36.4996 90.5191 36.0253L92.7673 27.2378C92.9055 26.7635 92.9622 26.252 93.2209 25.8232C93.492 25.6816 93.8126 25.7198 94.1085 25.7085C95.1434 25.7281 96.1794 25.7167 97.2143 25.7095C97.4813 25.7291 97.8297 25.6847 98.0029 25.941C98.0081 26.4576 97.737 26.9226 97.5751 27.4011L91.9849 42.4671C91.5819 43.5231 91.1582 44.5906 90.4851 45.5071C89.9882 46.1881 89.313 46.742 88.5327 47.0613C87.4307 47.5211 86.2164 47.5872 85.0372 47.5707C84.5063 47.5583 83.961 47.5841 83.4456 47.4374C83.2837 47.4012 83.2281 47.2276 83.2425 47.0819C83.259 46.68 83.3713 46.2904 83.4497 45.8988C83.6352 45.0917 83.7146 44.2589 84.0074 43.4808C84.5063 43.4777 85.0134 43.5149 85.5052 43.4053C85.7464 43.3444 86.0113 43.2317 86.1298 42.9961C86.2185 42.7512 86.2071 42.4846 86.2154 42.2284L86.2113 39.1211L86.2463 33.7499L86.2721 29.1019C86.2968 28.2019 86.2659 27.3019 86.2752 26.4029C86.2958 26.2065 86.27 25.9709 86.4133 25.8149ZM86.9504 26.3595C86.8452 28.3745 86.9236 30.3926 86.8823 32.4086C86.836 34.2004 86.8988 35.9922 86.839 37.783L86.8349 42.3276C86.8256 42.7791 86.8184 43.3092 86.4391 43.6234C85.9051 44.1152 85.132 44.0863 84.4547 44.1421C84.2548 45.0483 84.0558 45.9556 83.927 46.8753L84.5114 46.9486C84.6918 46.2263 84.7908 45.4854 84.9928 44.7683C85.6804 44.6133 86.4473 44.4748 86.9329 43.9106C87.2297 43.6017 87.2802 43.1542 87.2864 42.7461L87.3122 37.0576L87.338 32.4055C87.3792 30.5517 87.2751 28.6927 87.4184 26.842C88.4389 26.5992 89.4996 26.6075 90.5181 26.3512C89.3295 26.3481 88.1389 26.3264 86.9504 26.3595Z" fill="#F3D32F"/>
<path d="M57.9594 22.4936C58.5645 22.4006 59.1778 22.4006 59.7891 22.4182C61.157 22.4451 62.5321 22.3521 63.8959 22.5112C64.4144 22.5629 64.9123 22.7323 65.3782 22.9638C64.7164 22.9442 64.0577 22.8729 63.3959 22.8718C62.159 22.8687 60.922 22.8842 59.685 22.8646C59.3231 22.8656 58.9541 22.8491 58.6016 22.9411C58.4304 23.1622 58.383 23.4464 58.3212 23.713L57.9923 25.3363L54.9112 39.9229L54.5205 41.7219L53.903 41.7229C53.9855 41.135 54.1113 40.5542 54.2432 39.9756L57.5573 24.2813C57.6748 23.682 57.8016 23.0837 57.9594 22.4936ZM77.4276 26.5298C78.4976 26.0896 79.6799 26.0989 80.8159 26.132C81.6354 26.1578 82.458 26.3139 83.194 26.6879C82.3539 26.6342 81.5148 26.5174 80.6716 26.5629C79.7181 26.6001 78.7398 26.7313 77.8894 27.1932C77.208 27.5487 76.6514 28.1201 76.2823 28.7918C76.0329 29.2485 75.8432 29.7342 75.637 30.2106L75.0216 30.2147C75.0959 29.4469 75.3701 28.7133 75.7432 28.0437C76.1215 27.3741 76.7112 26.8171 77.4276 26.5298Z" fill="#FBEDAA"/>
<path d="M47.7511 23.5367C48.1067 23.4189 48.4891 23.4582 48.8592 23.453C49.5117 23.4747 50.1653 23.4354 50.8178 23.4592C50.991 23.4799 51.2126 23.4685 51.326 23.6297C51.4177 23.8198 51.3734 24.0399 51.3569 24.2425L51.1549 25.6592C51.7466 25.8927 52.3661 26.1169 52.8361 26.5633C53.4711 27.1554 53.7866 28.0307 53.8082 28.8883C53.8433 29.5982 53.7577 30.3143 53.5082 30.9819C52.5434 31.0325 51.5785 30.987 50.6137 31.0129C50.2817 31.0087 49.9405 31.0377 49.6189 30.9416C49.4849 30.9095 49.42 30.7618 49.4375 30.6357C49.4519 30.0922 49.6952 29.5621 49.5962 29.0165C49.5622 28.7385 49.2375 28.6589 49.0097 28.7313C48.7499 28.7964 48.618 29.0578 48.5366 29.2903C48.3881 29.7315 48.317 30.2379 48.5201 30.675C48.7314 31.1276 49.1252 31.4531 49.4973 31.7693C50.2117 32.3562 50.9126 32.9679 51.5136 33.6737C51.9599 34.1986 52.3279 34.8011 52.5125 35.4686C52.7351 36.2508 52.6929 37.0785 52.5723 37.8742C52.4352 38.7412 52.1991 39.6061 51.7569 40.3687C51.3363 41.0992 50.6858 41.6955 49.9179 42.0416C49.5272 42.2194 49.1179 42.3485 48.7128 42.488C48.5572 43.1773 48.6056 43.9223 48.318 44.5764C48.0026 44.7056 47.6521 44.6777 47.3191 44.6828C46.7316 44.6694 46.143 44.6777 45.5544 44.6839C45.2894 44.6756 45.0101 44.6911 44.7658 44.5743C44.6091 44.4286 44.6545 44.1951 44.6637 44.006C44.7235 43.4955 44.8163 42.9902 44.8452 42.4777C44.2761 42.2772 43.6875 42.0778 43.2195 41.682C42.7454 41.2914 42.4237 40.7365 42.2743 40.1444C42.0681 39.3353 42.1155 38.4839 42.2557 37.6686C42.3073 37.466 42.332 37.2253 42.499 37.0827C42.8144 36.9587 43.1639 36.9948 43.4968 36.9876C44.2895 37.0093 45.0822 36.9855 45.875 36.9897C46.1182 37.0062 46.413 36.9886 46.5862 37.1974C46.6553 37.7554 46.3811 38.2958 46.4512 38.8548C46.4728 39.1204 46.7264 39.3291 46.9913 39.2878C47.3356 39.2589 47.5552 38.9385 47.6583 38.6368C47.8809 37.9868 47.9263 37.217 47.5501 36.6125C47.1016 35.8716 46.3625 35.389 45.7358 34.8155C44.9864 34.1356 44.2648 33.3554 43.9422 32.3748C43.6113 31.3962 43.7329 30.336 43.9566 29.3492C44.1885 28.3262 44.6503 27.3146 45.4595 26.6222C45.9853 26.1541 46.6553 25.9072 47.3037 25.6602C47.3996 25.1559 47.4573 24.6465 47.5315 24.1391C47.5727 23.9304 47.5964 23.6969 47.7511 23.5367ZM48.0696 23.9707L47.7686 26.0518C47.1398 26.2895 46.4656 26.461 45.9296 26.8857C45.1276 27.5037 44.6771 28.4667 44.4524 29.4339C44.1803 30.551 44.0999 31.7992 44.6936 32.8315C44.6813 32.1836 44.6431 31.5295 44.7575 30.8868C44.9493 29.6985 45.3688 28.4791 46.2708 27.6411C46.813 27.1151 47.5336 26.8496 48.2242 26.584C48.3665 25.8545 48.4304 25.1125 48.5829 24.3851C49.3324 24.2321 50.0952 24.1464 50.8394 23.9676C49.9158 23.9542 48.9922 23.9469 48.0696 23.9707ZM42.8093 37.5187C42.5815 38.5727 42.4938 39.7538 43.0556 40.7221C43.0824 39.789 43.0556 38.8414 43.336 37.9403C44.2184 37.7926 45.1163 37.7306 45.9863 37.5115C44.9266 37.5063 43.8679 37.4898 42.8093 37.5187Z" fill="#FD7901"/>
<path d="M48.0696 23.9706C48.9922 23.9469 49.9158 23.9541 50.8394 23.9675C50.0952 24.1463 49.3323 24.2321 48.5829 24.385C48.4304 25.1125 48.3665 25.8544 48.2242 26.5839C47.5336 26.8495 46.813 27.1151 46.2708 27.641C45.3688 28.4791 44.9493 29.6984 44.7575 30.8867C44.6431 31.5295 44.6813 32.1836 44.6936 32.8315C44.0999 31.7992 44.1803 30.5509 44.4524 29.4339C44.6771 28.4667 45.1276 27.5036 45.9296 26.8857C46.4656 26.461 47.1398 26.2894 47.7686 26.0518C47.883 25.3605 47.9634 24.664 48.0696 23.9706Z" fill="#FFC591"/>
<path d="M61.5642 25.2837C61.9054 25.3385 62.3435 25.2692 62.5888 25.5679C62.7867 25.9419 62.6816 26.3883 62.6249 26.7862L62.0847 29.4377C61.9786 29.8965 61.8899 30.4049 61.5446 30.7511C61.2157 31.0497 60.7354 30.9722 60.3292 30.996L61.2735 26.4565C61.3522 26.0613 61.4492 25.6699 61.5642 25.2837Z" fill="#132632"/>
<path d="M34.9368 26.7109C35.7924 26.2655 36.7696 26.126 37.7232 26.1198C38.686 26.1167 39.6951 26.1467 40.5652 26.6107C39.8188 26.621 39.0735 26.5218 38.3283 26.5724C37.3603 26.6272 36.38 26.8276 35.5327 27.3164C34.7801 27.738 34.175 28.3911 33.7431 29.134C33.1617 30.124 32.8597 31.2451 32.6237 32.3601L31.6371 37.0473C31.5083 37.6642 31.3805 38.2842 31.3341 38.9146C31.2898 39.4746 31.3155 40.0357 31.3052 40.5968C30.6795 39.4199 30.8115 38.0321 31.0506 36.7704L32.1196 31.6399C32.3391 30.5683 32.6103 29.4895 33.1391 28.5244C33.5524 27.768 34.1668 27.1077 34.9368 26.7109Z" fill="#FFC998"/>
<path d="M86.9504 26.3594C88.1389 26.3264 89.3295 26.3481 90.5181 26.3512C89.4996 26.6074 88.4389 26.5992 87.4184 26.842C87.2751 28.6927 87.3792 30.5517 87.338 32.4055C87.2937 33.9555 87.3308 35.5065 87.3122 37.0575C87.2627 38.9527 87.2988 40.8499 87.2864 42.746C87.2803 43.1542 87.2297 43.6016 86.9329 43.9106C86.4474 44.4748 85.6804 44.6133 84.9929 44.7683C84.7908 45.4854 84.6919 46.2263 84.5115 46.9486L83.927 46.8752C84.0558 45.9556 84.2548 45.0483 84.4548 44.1421C85.132 44.0863 85.9051 44.1152 86.4391 43.6233C86.8184 43.3092 86.8257 42.7791 86.8349 42.3275L86.8391 37.7829C86.8988 35.9922 86.836 34.2004 86.8824 32.4086C86.9236 30.3925 86.8452 28.3744 86.9504 26.3594Z" fill="#FBEDA8"/>
<path d="M36.9562 29.2582C37.149 28.9162 37.6459 28.88 37.952 29.0763C38.1128 29.3233 38.0592 29.6385 38.0376 29.9154C37.9355 30.646 37.752 31.3621 37.6026 32.0844C37.1572 32.1019 36.7119 32.104 36.2666 32.0895C36.3673 31.4173 36.4959 30.7495 36.6521 30.088C36.7253 29.8028 36.7995 29.5103 36.9562 29.2582Z" fill="#132330"/>
<path d="M80.8798 29.7974C81.0107 29.8945 81.1685 29.9648 81.2695 30.1001C81.355 30.3316 81.3241 30.5858 81.3014 30.8266C81.2107 31.4972 81.0458 32.1544 80.8974 32.8137C79.9995 32.9511 79.0852 32.98 78.1986 33.1919C77.0637 33.4399 75.9185 33.8801 75.0948 34.7315C74.0887 35.7773 73.6558 37.2239 73.4012 38.6189C73.2218 39.5055 73.2599 40.4128 73.2517 41.3118C73.0486 40.9036 72.8682 40.4738 72.827 40.015C72.7146 38.8762 72.8909 37.7303 73.1754 36.6287C73.3981 35.8021 73.7104 34.9744 74.2681 34.313C74.7711 33.7137 75.4566 33.2911 76.1896 33.0327C77.2173 32.67 78.3059 32.5212 79.3882 32.4458C79.6769 32.4055 79.9985 32.4127 80.2469 32.2391C80.4252 32.0387 80.4768 31.7617 80.5407 31.5086C80.6561 30.9382 80.7386 30.3616 80.8798 29.7974Z" fill="#FBEEAB"/>
<path d="M18.8528 30.2139C19.1043 30.5611 19.3692 30.9072 19.5362 31.3061C19.695 31.6874 19.6682 32.11 19.663 32.5141L19.5053 40.0512C19.4857 40.5854 19.5558 41.1548 19.3177 41.6529C19.1126 42.0734 18.8363 42.4537 18.5817 42.8453L18.6899 37.0545L18.792 31.3691C18.794 30.9827 18.8167 30.5972 18.8528 30.2139Z" fill="#FFCA99"/>
<path d="M77.9997 35.3704C78.3244 35.1183 78.7419 35.0552 79.1315 34.9653C79.0027 35.7445 78.8305 36.5164 78.6842 37.2934C78.6027 37.6634 78.5347 38.054 78.3193 38.3743C78.1275 38.6647 77.71 38.8052 77.3977 38.6337C77.1781 38.5004 77.141 38.2172 77.1297 37.9837C77.1173 37.4722 77.2235 36.9669 77.3606 36.4781C77.4822 36.0679 77.6544 35.6432 77.9997 35.3704Z" fill="#132532"/>
<path d="M42.8093 37.5186C43.8679 37.4896 44.9266 37.5062 45.9863 37.5113C45.1163 37.7304 44.2184 37.7924 43.336 37.9402C43.0556 38.8412 43.0825 39.7888 43.0556 40.7219C42.4938 39.7537 42.5815 38.5726 42.8093 37.5186Z" fill="#FFBF86"/>
</svg>
