<svg width="32" height="32" viewBox="0 0 32 32" fill="none" xmlns="http://www.w3.org/2000/svg">
<g clip-path="url(#clip0_2176_1259)">
<mask id="mask0_2176_1259" style="mask-type:luminance" maskUnits="userSpaceOnUse" x="0" y="0" width="32" height="32">
<path d="M32 0H0V32H32V0Z" fill="white"/>
</mask>
<g mask="url(#mask0_2176_1259)">
<path d="M30.4577 1.53683C33.6232 4.71455 32.1426 15.5042 23.8988 23.7538C15.7574 31.9008 4.66278 33.6951 1.4923 30.5224C-1.67819 27.3497 0.0450456 16.3825 8.18637 8.23556C16.5327 -0.116591 27.2922 -1.64089 30.4577 1.53683Z" fill="#FF7922"/>
<path fill-rule="evenodd" clip-rule="evenodd" d="M14.1574 22.673C13.7937 22.673 13.4536 22.5333 13.1922 22.2747L13.1996 22.2762L12.5165 21.5956L12.2492 21.875C11.9893 22.1365 11.6315 22.2881 11.2691 22.2881C10.9127 22.2881 10.5771 22.1499 10.3187 21.9018C10.0573 21.6506 9.91028 21.3103 9.90287 20.9447C9.89546 20.5792 10.0306 20.2314 10.286 19.9669L10.583 19.6578L9.7722 18.8434C9.24349 18.3055 9.24349 17.4391 9.7722 16.9115C10.0291 16.653 10.3736 16.5103 10.7375 16.5103C11.1028 16.5103 11.4458 16.653 11.7028 16.9115L12.4794 17.6887L12.8507 17.3024L12.0785 16.5326C11.5483 16.0006 11.5483 15.1327 12.0785 14.5947C12.3368 14.3362 12.6799 14.1936 13.0437 14.1936C13.409 14.1936 13.7506 14.3377 14.0089 14.5948L14.7485 15.3348L15.1168 14.9485L14.3892 14.2203C14.1292 13.9617 13.9882 13.6155 13.9882 13.2484C13.9882 12.8828 14.1322 12.541 14.3892 12.2884C14.6416 12.0283 14.9906 11.8872 15.3544 11.8872C15.7182 11.8872 16.0613 12.0283 16.3197 12.2884L17.0177 12.9869L17.3889 12.6079L16.6954 11.9139C16.1667 11.3789 16.1667 10.5125 16.6954 9.982C16.9508 9.72197 17.2968 9.58081 17.6607 9.58081C18.026 9.58081 18.3675 9.72197 18.6229 9.982L19.2793 10.6404L19.71 10.1946C19.9714 9.92706 20.3189 9.77844 20.6901 9.77844C21.0524 9.77844 21.3851 9.91663 21.6405 10.1648C21.9049 10.4189 22.0519 10.7607 22.0608 11.1248C22.0652 11.4904 21.9272 11.8337 21.6747 12.0937L21.2114 12.5722L22.0519 13.4119C22.3088 13.6704 22.4529 14.0152 22.4529 14.3778C22.4529 14.7448 22.3088 15.0881 22.0519 15.3437C21.7994 15.5964 21.443 15.745 21.0866 15.745C20.7302 15.745 20.3738 15.5964 20.1214 15.3437L19.312 14.5353L18.9437 14.9217L19.7412 15.7242C19.9996 15.9798 20.1422 16.3275 20.1422 16.6901C20.1422 17.0527 19.9996 17.3945 19.7412 17.6561C19.4857 17.9117 19.1412 18.0544 18.7759 18.0544C18.4106 18.0544 18.069 17.9117 17.8107 17.6561L17.0414 16.8833L16.6702 17.2697L17.4319 18.0335C17.6933 18.2891 17.8329 18.6339 17.8329 18.9995C17.8329 19.3665 17.6889 19.7083 17.4364 19.961C17.181 20.2165 16.8395 20.3622 16.4682 20.3622C16.0969 20.3622 15.7509 20.2165 15.5029 19.961L14.7752 19.2328L14.404 19.6221L15.1257 20.3399C15.6544 20.8749 15.6544 21.7412 15.1257 22.2718C14.8703 22.5303 14.5287 22.673 14.1574 22.673Z" fill="#EEEEEE"/>
<path d="M26.9625 1.77783C20.7409 2.07413 14.8144 4.4445 9.48101 9.77807C1.77756 17.7781 1.69072 24.8558 1.77775 26.0743C2.07402 30.2223 2.04762 26.8638 2.07362 26.3706C2.37037 20.7408 6.8144 13.926 10.6667 10.3706C17.7778 3.73358 23.407 2.37042 27.2588 2.07432C29.2912 1.91808 28.1478 1.77761 26.9625 1.77783Z" fill="#EEEEEE"/>
</g>
</g>
<defs>
<clipPath id="clip0_2176_1259">
<rect width="32" height="32" fill="white"/>
</clipPath>
</defs>
</svg>
