<svg width="32" height="32" viewBox="0 0 32 32" fill="none" xmlns="http://www.w3.org/2000/svg">
<g clip-path="url(#clip0_2176_1124)">
<mask id="mask0_2176_1124" style="mask-type:luminance" maskUnits="userSpaceOnUse" x="0" y="0" width="32" height="32">
<path d="M32 0H0V32H32V0Z" fill="white"/>
</mask>
<g mask="url(#mask0_2176_1124)">
<path d="M15.7394 21.7551C14.5603 21.7551 13.3328 21.2584 12.0938 20.2906C11.0089 19.4456 10.3438 18.6063 9.49018 17.5414C8.19122 15.9142 6.57824 13.9044 2.9155 11.3122C4.28582 7.39537 7.48894 4.26646 11.4457 2.97607C12.8217 4.68897 16.3646 8.87129 20.5726 12.22C22.4511 13.7188 21.8174 17.1246 20.0359 19.3657C19.4735 20.0879 17.9176 21.7551 15.7365 21.7551H15.7394Z" fill="#FF7922"/>
<path d="M15.9806 1.80249C15.7636 1.80249 15.558 1.83104 15.3439 1.8396C17.211 4.06637 20.0258 7.14388 23.1947 9.67325C26.906 12.6423 26.1352 18.2007 23.2404 21.8634C21.5275 24.0502 18.9724 25.5947 16.1033 25.5947C14.2477 25.5947 12.2493 24.9323 10.2738 23.3879C8.85202 22.2745 7.98986 21.1896 7.06779 20.0563C5.90871 18.606 4.62974 17.0187 1.83486 14.9547C1.80632 15.3058 1.77777 15.657 1.77777 16.0196C1.77777 23.8647 8.13836 30.2223 15.9834 30.2223C23.8285 30.2223 30.1862 23.8647 30.1862 16.0196C30.1862 8.16877 23.8285 1.80249 15.9834 1.80249H15.9806Z" fill="#FF7922"/>
</g>
</g>
<defs>
<clipPath id="clip0_2176_1124">
<rect width="32" height="32" fill="white"/>
</clipPath>
</defs>
</svg>
