<svg width="24" height="18" viewBox="0 0 24 18" fill="none" xmlns="http://www.w3.org/2000/svg">
<g clip-path="url(#clip0_2175_2736)">
<path d="M23.1705 0.981445H0.8295C0.371391 0.981445 0 1.35284 0 1.81095V6.34549V11.6542V16.1888C0 16.6469 0.371391 17.0183 0.8295 17.0183H23.1705C23.6286 17.0183 24 16.6469 24 16.1888V11.6542V6.34549V1.81095C24 1.35284 23.6286 0.981445 23.1705 0.981445ZM12.8295 7.37524C13.4198 7.67782 13.8249 8.29226 13.8249 8.99988C13.8249 9.70751 13.4198 10.3219 12.8295 10.6245V7.37524ZM1.659 7.17499H2.84363V10.8248H1.659V7.17499ZM11.1705 10.6245C10.5802 10.3219 10.1751 9.70751 10.1751 8.99988C10.1751 8.29226 10.5802 7.67782 11.1705 7.37524V10.6245ZM11.1705 5.61659C9.64875 5.9898 8.51611 7.3647 8.51611 8.99988C8.51611 10.6351 9.64875 12.01 11.1705 12.3832V15.3594H1.659V12.4838H3.67313C4.13123 12.4838 4.50262 12.1124 4.50262 11.6543V6.34549C4.50262 5.88738 4.13123 5.51599 3.67313 5.51599H1.659V2.6404H11.1705V5.61659ZM22.341 10.8248H21.1564V7.17499H22.341V10.8248ZM22.341 5.51599H20.3269C19.8688 5.51599 19.4974 5.88738 19.4974 6.34549V11.6542C19.4974 12.1123 19.8688 12.4837 20.3269 12.4837H22.341V15.3593H12.8295V12.3831C14.3513 12.0099 15.4839 10.635 15.4839 8.99984C15.4839 7.36465 14.3513 5.98971 12.8295 5.61654V2.64035H22.341V5.51599Z" fill="#94B0BF"/>
</g>
<defs>
<clipPath id="clip0_2175_2736">
<rect width="24" height="18" fill="white"/>
</clipPath>
</defs>
</svg>
